HIERARCHY
ROOT Hips
{
    OFFSET 0.000 93.594 0.000
    CHANNELS 6 Xposition Yposition Zposition Yrotation Xrotation Zrotation
    JOINT RightHip
    {
        OFFSET -9.500 -1.594 0.000
        CHANNELS 3 Yrotation Xrotation Zrotation
        JOINT RightKnee
        {
            OFFSET 0.000 -42.000 0.000
            CHANNELS 3 Yrotation Xrotation Zrotation
            JOINT RightAnkle
            {
                OFFSET 0.000 -42.000 0.000
                CHANNELS 3 Yrotation Xrotation Zrotation
                End Site
                {
                    OFFSET 0.000 -8.000 17.500
                }
            }
        }
    }
    JOINT LeftHip
    {
        OFFSET 9.500 -1.594 0.000
        CHANNELS 3 Yrotation Xrotation Zrotation
        JOINT LeftKnee
        {
            OFFSET 0.000 -42.000 0.000
            CHANNELS 3 Yrotation Xrotation Zrotation
            JOINT LeftAnkle
            {
                OFFSET 0.000 -42.000 0.000
                CHANNELS 3 Yrotation Xrotation Zrotation
                End Site
                {
                    OFFSET 0.000 -8.000 17.500
                }
            }
        }
    }
    JOINT Chest
    {
        OFFSET 0.000 14.348 0.000
        CHANNELS 3 Yrotation Xrotation Zrotation
        JOINT Chest2
        {
            OFFSET 0.000 9.746 0.000
            CHANNELS 3 Yrotation Xrotation Zrotation
            JOINT Chest3
            {
                OFFSET 0.000 10.149 0.000
                CHANNELS 3 Yrotation Xrotation Zrotation
                JOINT Chest4
                {
                    OFFSET 0.000 9.746 0.000
                    CHANNELS 3 Yrotation Xrotation Zrotation
                    JOINT Neck
                    {
                        OFFSET 0.000 10.417 0.000
                        CHANNELS 3 Yrotation Xrotation Zrotation
                        JOINT Head
                        {
                            OFFSET 0.000 9.000 0.000
                            CHANNELS 3 Yrotation Xrotation Zrotation
                            End Site
                            {
                                OFFSET 0.000 16.000 0.000
                            }
                        }
                    }
                    JOINT RightCollar
                    {
                        OFFSET -3.200 6.945 0.000
                        CHANNELS 3 Yrotation Xrotation Zrotation
                        JOINT RightShoulder
                        {
                            OFFSET -12.800 0.000 0.000
                            CHANNELS 3 Yrotation Xrotation Zrotation
                            JOINT RightElbow
                            {
OFFSET -0 -27 0.000
						CHANNELS 3 Xrotation Yrotation Zrotation
                                JOINT RightWrist
                                {
OFFSET -0 -26 0.000
						CHANNELS 3 Xrotation Yrotation Zrotation
                                    JOINT RightFinger0
                                    {
OFFSET -0.196 -2.56 3.210
						CHANNELS 3 Xrotation Yrotation Zrotation
                                        JOINT RightFinger01
                                        {
OFFSET -0 -3.788 0.000
						CHANNELS 3 Xrotation Yrotation Zrotation
                                            JOINT RightFinger0Nub
                                            {
OFFSET -0 -2.631 0.000
						CHANNELS 3 Xrotation Yrotation Zrotation
                                                End Site
                                                {
OFFSET 0 -2.256 0
                                                }
                                            }
                                        }
                                    }
                                    JOINT RightFinger1
                                    {
OFFSET -0.523 -3.316 2.035
						CHANNELS 3 Xrotation Yrotation Zrotation
                                        JOINT RightFinger11
                                        {
OFFSET 0.094 -5.366 1.028
						CHANNELS 3 Xrotation Yrotation Zrotation
                                            JOINT RightFinger12
                                            {
OFFSET -0 -3.723 0.000
						CHANNELS 3 Xrotation Yrotation Zrotation
                                                JOINT RightFinger1Nub
                                                {
OFFSET -0 -2.111 0.000
						CHANNELS 3 Xrotation Yrotation Zrotation
                                                    End Site
                                                    {
OFFSET 0 -1.857 0
                                                    }
                                                }
                                            }
                                        }
                                    }
                                    JOINT RightFinger2
                                    {
OFFSET -0.532 -3.479 0.778
						CHANNELS 3 Xrotation Yrotation Zrotation
                                        JOINT RightFinger21
                                        {
OFFSET 0.086 -5.322 0.323
						CHANNELS 3 Xrotation Yrotation Zrotation
                                            JOINT RightFinger22
                                            {
OFFSET -0 -4.062 0.000
						CHANNELS 3 Xrotation Yrotation Zrotation
                                                JOINT RightFinger2Nub
                                                {
OFFSET -0 -2.547 0.000
						CHANNELS 3 Xrotation Yrotation Zrotation
                                                    End Site
                                                    {
OFFSET 0 -2.031 0
                                                    }
                                                }
                                            }
                                        }
                                    }
                                    JOINT RightFinger3
                                    {
OFFSET -0.553 -3.461 -0.133
						CHANNELS 3 Xrotation Yrotation Zrotation
                                        JOINT RightFinger31
                                        {
OFFSET 0.023 -4.767 -0.493
						CHANNELS 3 Xrotation Yrotation Zrotation
                                            JOINT RightFinger32
                                            {
OFFSET -0 -3.541 0.000
						CHANNELS 3 Xrotation Yrotation Zrotation
                                                JOINT RightFinger3Nub
                                                {
OFFSET -0 -2.456 0.000
						CHANNELS 3 Xrotation Yrotation Zrotation
                                                    End Site
                                                    {
OFFSET 0 -1.91 0
                                                    }
                                                }
                                            }
                                        }
                                    }
                                    JOINT RightFinger4
                                    {
OFFSET -0.483 -3.251 -1.236
						CHANNELS 3 Xrotation Yrotation Zrotation
                                        JOINT RightFinger41
                                        {
OFFSET 0.023 -4.259 -1.122
						CHANNELS 3 Xrotation Yrotation Zrotation
                                            JOINT RightFinger42
                                            {
OFFSET -0 -2.835 0.000
						CHANNELS 3 Xrotation Yrotation Zrotation
                                                JOINT RightFinger4Nub
                                                {
OFFSET -0 -1.792 0.000
						CHANNELS 3 Xrotation Yrotation Zrotation
                                                    End Site
                                                    {
OFFSET 0 -1.692 0
                                                    }
                                                }
                                            }
                                        }
                                    }
                                }
                            }
                        }
                    }
                    JOINT LeftCollar
                    {
                        OFFSET 3.200 6.945 0.000
                        CHANNELS 3 Yrotation Xrotation Zrotation
                        JOINT LeftShoulder
                        {
                            OFFSET 12.800 0.000 0.000
                            CHANNELS 3 Yrotation Xrotation Zrotation
                            JOINT LeftElbow
                            {
OFFSET -0 -27 0.000
						CHANNELS 3 Xrotation Yrotation Zrotation
                                JOINT LeftWrist
                                {
OFFSET -0 -26 0.000
						CHANNELS 3 Xrotation Yrotation Zrotation
                                    JOINT LeftFinger0
                                    {
OFFSET -0.196 -2.56 3.210
						CHANNELS 3 Xrotation Yrotation Zrotation
                                        JOINT LeftFinger01
                                        {
OFFSET -0 -3.788 0.000
						CHANNELS 3 Xrotation Yrotation Zrotation
                                            JOINT LeftFinger0Nub
                                            {
OFFSET -0 -2.631 0.000
						CHANNELS 3 Xrotation Yrotation Zrotation
                                                End Site
                                                {
OFFSET 0 -2.256 0
                                                }
                                            }
                                        }
                                    }
                                    JOINT LeftFinger1
                                    {
OFFSET -0.523 -3.316 2.035
						CHANNELS 3 Xrotation Yrotation Zrotation
                                        JOINT LeftFinger11
                                        {
OFFSET 0.094 -5.366 1.028
						CHANNELS 3 Xrotation Yrotation Zrotation
                                            JOINT LeftFinger12
                                            {
OFFSET -0 -3.723 0.000
						CHANNELS 3 Xrotation Yrotation Zrotation
                                                JOINT LeftFinger1Nub
                                                {
OFFSET -0 -2.111 0.000
						CHANNELS 3 Xrotation Yrotation Zrotation
                                                    End Site
                                                    {
OFFSET 0 -1.857 0
                                                    }
                                                }
                                            }
                                        }
                                    }
                                    JOINT LeftFinger2
                                    {
OFFSET -0.532 -3.479 0.778
						CHANNELS 3 Xrotation Yrotation Zrotation
                                        JOINT LeftFinger21
                                        {
OFFSET 0.086 -5.322 0.323
						CHANNELS 3 Xrotation Yrotation Zrotation
                                            JOINT LeftFinger22
                                            {
OFFSET -0 -4.062 0.000
						CHANNELS 3 Xrotation Yrotation Zrotation
                                                JOINT LeftFinger2Nub
                                                {
OFFSET -0 -2.547 0.000
						CHANNELS 3 Xrotation Yrotation Zrotation
                                                    End Site
                                                    {
OFFSET 0 -2.031 0
                                                    }
                                                }
                                            }
                                        }
                                    }
                                    JOINT LeftFinger3
                                    {
OFFSET -0.553 -3.461 -0.133
						CHANNELS 3 Xrotation Yrotation Zrotation
                                        JOINT LeftFinger31
                                        {
OFFSET 0.023 -4.767 -0.493
						CHANNELS 3 Xrotation Yrotation Zrotation
                                            JOINT LeftFinger32
                                            {
OFFSET -0 -3.541 0.000
						CHANNELS 3 Xrotation Yrotation Zrotation
                                                JOINT LeftFinger3Nub
                                                {
OFFSET -0 -2.456 0.000
						CHANNELS 3 Xrotation Yrotation Zrotation
                                                    End Site
                                                    {
OFFSET 0 -1.91 0
                                                    }
                                                }
                                            }
                                        }
                                    }
                                    JOINT LeftFinger4
                                    {
OFFSET -0.483 -3.251 -1.236
						CHANNELS 3 Xrotation Yrotation Zrotation
                                        JOINT LeftFinger41
                                        {
OFFSET 0.023 -4.259 -1.122
						CHANNELS 3 Xrotation Yrotation Zrotation
                                            JOINT LeftFinger42
                                            {
OFFSET -0 -2.835 0.000
						CHANNELS 3 Xrotation Yrotation Zrotation
                                                JOINT LeftFinger4Nub
                                                {
OFFSET -0 -1.792 0.000
						CHANNELS 3 Xrotation Yrotation Zrotation
                                                    End Site
                                                    {
OFFSET 0 -1.692 0
                                                    }
                                                }
                                            }
                                        }
                                    }
                                }
                            }
                        }
                    }
                }
            }
        }
    }
}
MOTION

Frames: 7
Frame Time: 0.017
-263.75 86.79 37.90 152.14 -1.63 -4.43 -10.64 -8.69 5.74 -0.00 35.76 -0.00 0.75 -9.32 4.68 20.02 2.23 6.41 0.00 41.81 0.00 -12.70 1.98 0.24 -13.27 5.99 1.43 -3.32 1.62 0.48 -5.40 2.84 0.74 1.52 -1.11 0.15 1.54 -1.12 0.16 28.88 -19.74 -1.79 17.21 2.47 -10.79 3.82 -50.77 -4.9 -104.7 -23.28 5.67 -21.23 11.56 13.88 -45.58 -0 25.75 19.38 -0 -4.07 9.85 -0 0.00 0 -0 0.00 -15 -0 40.62 0 -0 57.79 0 -0 28.89 0 -0 0.00 0 -0 60.10 0 -0 60.10 0 -0 60.10 0 -0 0.00 15 -0 66.55 0 -0 66.55 0 -0 66.55 0 -0 0.00 25 -0 72.67 0 -0 72.67 0 -0 72.67 -13.80 14.99 8.45 -48.81 -26.36 35.64 -5.24 -40.03 1.19 -12.42 16.78 -12.66 -12.65 0 -36.04 -15.26 0 8.17 6.20 0 0.00 0.00 0 0.00 -15.00 0 -41.11 0.00 0 -34.79 0.00 0 -17.39 0.00 0 0.00 0.00 0 -37.69 0.00 0 -37.69 0.00 0 -37.69 0.00 0 0.00 15.00 0 -70.00 0.00 0 -70.00 0.00 0 -70.00 0.00 0 0.00 25.00 0 -42.67 0.00 0 -42.67 0.00 0 -42.67 
-263.57 91.13 37.71 152.24 -2.13 -4.14 -8.52 -7.36 5.92 -0.00 34.72 -0.00 -1.34 -11.74 3.30 18.88 0.68 5.88 0.00 47.76 0.00 -12.11 4.12 -1.00 -11.99 7.04 1.61 -2.99 1.89 0.53 -4.86 3.28 0.83 1.42 -1.19 0.10 1.43 -1.19 0.10 27.20 -20.75 -2.74 14.33 1.89 -11.55 4.44 -50.70 -2.4 -107.87 -22.49 4.58 -20.8 11.69 15.01 -45.76 -0 25.65 19.01 -0 -4.18 10.59 -0 0.00 0 -0 0.00 -15 -0 39.45 0 -0 57.51 0 -0 28.75 0 -0 0.00 0 -0 59.41 0 -0 59.41 0 -0 59.41 0 -0 0.00 15 -0 65.51 0 -0 65.51 0 -0 65.51 0 -0 0.00 25 -0 71.75 0 -0 71.75 0 -0 71.75 -12.68 11.34 6.44 -47.38 -26.76 36.47 -8.41 -42.42 -1.74 -12.63 16.8 -13.44 -12.49 0 -35.75 -14.93 0 8.47 6.85 0 0.00 0.00 0 0.00 -15.00 0 -41.35 0.00 0 -33.25 0.00 0 -16.62 0.00 0 0.00 0.00 0 -37.43 0.00 0 -37.43 0.00 0 -37.43 0.00 0 0.00 15.00 0 -69.06 0.00 0 -69.06 0.00 0 -69.06 0.00 0 0.00 25.00 0 -42.17 0.00 0 -42.17 0.00 0 -42.17 
-263.53 91.20 37.93 152.33 -1.77 -4.16 -6.67 -8.44 6.77 0.00 36.23 0.00 -3.91 -14.75 1.84 16.30 -2.15 4.56 0.00 54.83 -0.00 -7.04 2.89 -0.88 -11.34 7.79 1.74 -2.82 2.08 0.57 -4.58 3.60 0.89 1.37 -1.27 0.08 1.38 -1.28 0.08 26.41 -22.11 -3.33 12.87 2.71 -11.24 4.84 -52.18 -1.06 -111.15 -22.7 2.89 -25.09 9.89 13.76 -44.72 -0 27.60 21.1 -0 -2.22 10.6 -0 0.00 0 -0 0.00 -15 -0 41.66 0 -0 57.57 0 -0 28.78 0 -0 0.00 0 -0 61.18 0 -0 61.18 0 -0 61.18 0 -0 0.00 15 -0 66.57 0 -0 66.57 0 -0 66.57 0 -0 0.00 25 -0 72.96 0 -0 72.96 0 -0 72.96 -10.67 6.58 5.17 -45.30 -26.66 36.2 -11.89 -47.6 -6.91 -14.19 19.44 -11.06 -12.18 0 -37.40 -14.31 0 6.82 8.82 0 0.00 0.00 0 0.00 -15.00 0 -35.26 0.00 0 -39.95 0.00 0 -19.97 0.00 0 0.00 0.00 0 -36.94 0.00 0 -36.94 0.00 0 -36.94 0.00 0 0.00 15.00 0 -67.75 0.00 0 -67.75 0.00 0 -67.75 0.00 0 0.00 25.00 0 -41.00 0.00 0 -41.00 0.00 0 -41.00 
-262.96 90.41 38.24 152.25 -2.24 -5.47 -7.24 -7.53 8.90 -0.00 36.50 -0.00 -4.65 -17.87 -1.09 15.23 -3.84 5.15 0.00 59.25 0.00 -2.80 -0.79 0.29 -10.81 8.96 2.34 -2.68 2.39 0.73 -4.32 4.12 1.16 1.35 -1.33 0.08 1.36 -1.34 0.08 26.03 -23.25 -3.60 13.09 2.78 -10.08 3.90 -52.24 -0.239998 -113.63 -24.91 1.43 -25.18 9.66 14.31 -45.04 -0 27.99 20.45 -0 -1.84 13.53 -0 0.00 0 -0 0.00 -15 -0 42.30 0 -0 58.07 0 -0 29.03 0 -0 0.00 0 -0 62.09 0 -0 62.09 0 -0 62.09 0 -0 0.00 15 -0 67.35 0 -0 67.35 0 -0 67.35 0 -0 0.00 25 -0 73.46 0 -0 73.46 0 -0 73.46 -8.57 3.96 5.37 -41.64 -29.63 35.31 -16.59 -53.63 -13.40 -15.64 22.53 -7.74 -12.07 0 -39.53 -14.10 0 4.69 11.34 0 0.00 0.00 0 0.00 -15.00 0 -34.50 0.00 0 -40.27 0.00 0 -20.13 0.00 0 0.00 0.00 0 -36.80 0.00 0 -36.80 0.00 0 -36.80 0.00 0 0.00 15.00 0 -66.90 0.00 0 -66.90 0.00 0 -66.90 0.00 0 0.00 25.00 0 -40.33 0.00 0 -40.33 0.00 0 -40.33 
-262.74 89.81 38.52 151.44 -2.19 -6.16 -8.13 -7.00 9.94 0.00 36.16 -0.00 -3.71 -20.21 -3.87 14.48 -7.11 5.88 0.00 65.37 0.00 0.09 -3.41 2.66 -9.79 9.09 2.39 -2.42 2.41 0.73 -3.91 4.14 1.16 1.31 -1.34 0.10 1.33 -1.35 0.11 25.14 -23.67 -2.98 13.20 4.13 -10.83 1.00 -53.78 2.12 -114.87 -29.75 -1.65 -24.96 9.21 14.80 -45.45 -0 28.09 19.64 -0 -1.73 17.22 -0 0.00 0 -0 0.00 -15 -0 43.21 0 -0 58.77 0 -0 29.38 0 -0 0.00 0 -0 62.56 0 -0 62.56 0 -0 62.56 0 -0 0.00 15 -0 67.77 0 -0 67.77 0 -0 67.77 0 -0 0.00 25 -0 74.36 0 -0 74.36 0 -0 74.36 -7.49 2.75 6.26 -34.03 -32.77 31.22 -22.54 -58.57 -18.02 -14.59 20.32 -10.40 -12.12 0 -37.57 -14.19 0 6.65 13.56 0 0.00 0.00 0 0.00 -15.00 0 -31.14 0.00 0 -41.37 0.00 0 -20.68 0.00 0 0.00 0.00 0 -33.88 0.00 0 -33.88 0.00 0 -33.88 0.00 0 0.00 15.00 0 -66.77 0.00 0 -66.77 0.00 0 -66.77 0.00 0 0.00 25.00 0 -38.26 0.00 0 -38.26 0.00 0 -38.26 
-262.80 89.65 38.88 149.51 -0.69 -5.02 -7.86 -8.74 9.19 -0.00 36.10 -0.00 -2.20 -22.06 -6.33 15.53 -12.22 5.10 0.00 71.75 0.00 0.90 -5.01 5.54 -8.07 7.85 1.71 -2.00 2.05 0.53 -3.26 3.50 0.83 1.26 -1.32 0.12 1.27 -1.33 0.12 23.87 -23.58 -2.37 13.58 5.94 -10.75 -1.52 -55.09 3.17 -115.67 -35.25 -4.05 -24.73 8.9 14.82 -45.88 -0 28.07 18.77 -0 -1.75 20.89 -0 0.00 0 -0 0.00 -15 -0 44.11 0 -0 59.37 0 -0 29.68 0 -0 0.00 0 -0 63.12 0 -0 63.12 0 -0 63.12 0 -0 0.00 15 -0 68.03 0 -0 68.03 0 -0 68.03 0 -0 0.00 25 -0 75.29 0 -0 75.29 0 -0 75.29 -7.33 2.09 7.22 -26.69 -32.83 25.23 -25.87 -61.77 -17.94 -14.30 17.75 -12.92 -12.02 0 -35.22 -14.00 0 9.00 15.37 0 0.00 0.00 0 0.00 -15.00 0 -29.05 0.00 0 -42.37 0.00 0 -21.19 0.00 0 0.00 0.00 0 -31.02 0.00 0 -31.02 0.00 0 -31.02 0.00 0 0.00 15.00 0 -68.79 0.00 0 -68.79 0.00 0 -68.79 0.00 0 0.00 25.00 0 -36.51 0.00 0 -36.51 0.00 0 -36.51 
-263.08 90.02 38.98 147.51 1.52 -3.07 -7.00 -11.27 7.32 -0.00 35.70 0.00 -0.68 -22.36 -7.80 16.22 -17.49 3.71 0.00 76.72 0.00 0.03 -5.89 7.16 -6.75 6.83 0.39 -1.69 1.76 0.17 -2.79 2.98 0.26 1.24 -1.36 0.14 1.25 -1.37 0.14 23.31 -24.47 -2.08 14.25 6.92 -10.68 -6.48 -54.66 7.58 -116.29 -39.63 -2.57 -25.24 12.73 17.63 -46.69 -0 26.12 17.17 -0 -3.70 23.67 -0 0.00 0 -0 0.00 -15 -0 42.41 0 -0 59.41 0 -0 29.70 0 -0 0.00 0 -0 63.12 0 -0 63.12 0 -0 63.12 0 -0 0.00 15 -0 68.03 0 -0 68.03 0 -0 68.03 0 -0 0.00 25 -0 75.29 0 -0 75.29 0 -0 75.29 -6.80 0.75 7.84 -24.06 -30.94 21.76 -15.83 -49.63 -5.29 -16.74 7.08 -15.66 -12.09 0 -37.84 -14.14 0 6.38 19.78 0 0.00 0.00 0 0.00 -15.00 0 -31.01 0.00 0 -45.07 0.00 0 -22.54 0.00 0 0.00 0.00 0 -31.64 0.00 0 -31.64 0.00 0 -31.64 0.00 0 0.00 15.00 0 -72.73 0.00 0 -72.73 0.00 0 -72.73 0.00 0 0.00 25.00 0 -37.47 0.00 0 -37.47 0.00 0 -37.47 
